<mxfile host="app.diagrams.net" modified="2021-04-03T19:11:58.521Z" agent="5.0 (X11)" etag="JBInUQgUDbnXxepkjRPA" version="14.5.6" type="github">
  <diagram id="C5RBs43oDa-KdzZeNtuy" name="Page-1">
    <mxGraphModel dx="426" dy="804" grid="1" gridSize="10" guides="1" tooltips="1" connect="1" arrows="1" fold="1" page="1" pageScale="1" pageWidth="1169" pageHeight="1654" math="0" shadow="0">
      <root>
        <mxCell id="WIyWlLk6GJQsqaUBKTNV-0" />
        <mxCell id="WIyWlLk6GJQsqaUBKTNV-1" parent="WIyWlLk6GJQsqaUBKTNV-0" />
        <mxCell id="EZNr9idk4kIAUqU_iQ0u-0" value="&lt;p style=&quot;margin: 0px ; margin-top: 4px ; text-align: center&quot;&gt;&lt;b&gt;Path&lt;/b&gt;&lt;br&gt;&lt;/p&gt;&lt;hr size=&quot;1&quot;&gt;&lt;p style=&quot;margin: 0px ; margin-left: 4px&quot;&gt;graph : Graph&lt;/p&gt;&lt;p style=&quot;margin: 0px ; margin-left: 4px&quot;&gt;arcs : java.util.List&amp;lt;Arc&amp;gt;&lt;/p&gt;&lt;p style=&quot;margin: 0px ; margin-left: 4px&quot;&gt;node : Node&lt;br&gt;&lt;/p&gt;&lt;hr size=&quot;1&quot;&gt;&lt;p style=&quot;margin: 0px ; margin-left: 4px&quot;&gt;Concatenate(paths) : static Path&lt;/p&gt;&lt;p style=&quot;margin: 0px ; margin-left: 4px&quot;&gt;createFastestPathFromNodes (graph, nodes) : static Path&lt;/p&gt;&lt;p style=&quot;margin: 0px ; margin-left: 4px&quot;&gt;createShortestPathFromNodes (graph, nodes) : static Path&lt;/p&gt;&lt;p style=&quot;margin: 0px ; margin-left: 4px&quot;&gt;getArcs() : java.util.List&amp;lt;Arc&amp;gt;&lt;/p&gt;&lt;p style=&quot;margin: 0px ; margin-left: 4px&quot;&gt;getDestination() : node&lt;/p&gt;&lt;p style=&quot;margin: 0px ; margin-left: 4px&quot;&gt;getGraph() : graph&lt;/p&gt;&lt;p style=&quot;margin: 0px ; margin-left: 4px&quot;&gt;getLength() : float&lt;/p&gt;&lt;p style=&quot;margin: 0px ; margin-left: 4px&quot;&gt;getMinimumTravelTime() : double&lt;/p&gt;&lt;p style=&quot;margin: 0px ; margin-left: 4px&quot;&gt;getOrigin() : node&lt;/p&gt;&lt;p style=&quot;margin: 0px ; margin-left: 4px&quot;&gt;getTravelTime(double speed) : double&lt;/p&gt;&lt;p style=&quot;margin: 0px ; margin-left: 4px&quot;&gt;isEmpty() : boolean&lt;/p&gt;&lt;p style=&quot;margin: 0px ; margin-left: 4px&quot;&gt;isValid() : boolean&lt;/p&gt;&lt;p style=&quot;margin: 0px ; margin-left: 4px&quot;&gt;size() : int&lt;br&gt;&lt;/p&gt;&lt;p style=&quot;margin: 0px ; margin-left: 4px&quot;&gt;&lt;br&gt;&lt;/p&gt;" style="verticalAlign=top;align=left;overflow=fill;fontSize=12;fontFamily=Helvetica;html=1;" vertex="1" parent="WIyWlLk6GJQsqaUBKTNV-1">
          <mxGeometry x="140" y="50" width="320" height="280" as="geometry" />
        </mxCell>
        <mxCell id="EZNr9idk4kIAUqU_iQ0u-1" value="&lt;p style=&quot;margin: 0px ; margin-top: 4px ; text-align: center&quot;&gt;&lt;b&gt;Node&lt;/b&gt;&lt;br&gt;&lt;/p&gt;&lt;hr size=&quot;1&quot;&gt;&lt;div&gt;id : int&lt;/div&gt;&lt;div&gt;point : Point&lt;br&gt;&lt;/div&gt;&lt;hr size=&quot;1&quot;&gt;&lt;div&gt;compareTo(node other) : int&lt;/div&gt;&lt;div&gt;equals(java.lang.Object other) : boolean&lt;/div&gt;&lt;div&gt;getId() : int&lt;/div&gt;&lt;div&gt;getNumberOfSuccessors() : int&lt;/div&gt;&lt;div&gt;getPoint() : Point&lt;/div&gt;&lt;div&gt;getSuccessors() : java.util.List&amp;lt;Arc&amp;gt;&lt;/div&gt;&lt;div&gt;hasSuccessors() : boolean&lt;/div&gt;&lt;div&gt;linkNodes(Node origin, node destination, float length, &lt;br&gt;&lt;/div&gt;&lt;div&gt;RoadInformation roadInformation, &lt;br&gt;&lt;/div&gt;&lt;div&gt;java.util.ArrayList&amp;lt;Point&amp;gt; points) : static Arc&lt;br&gt;&lt;/div&gt;&lt;font face=&quot;Helvetica&quot;&gt;&lt;code&gt;&lt;/code&gt;&lt;/font&gt;" style="verticalAlign=top;align=left;overflow=fill;fontSize=12;fontFamily=Helvetica;html=1;" vertex="1" parent="WIyWlLk6GJQsqaUBKTNV-1">
          <mxGeometry x="40" y="440" width="290" height="250" as="geometry" />
        </mxCell>
        <mxCell id="EZNr9idk4kIAUqU_iQ0u-3" value="&lt;p style=&quot;margin: 0px ; margin-top: 4px ; text-align: center&quot;&gt;&lt;b&gt;Arc&lt;/b&gt;&lt;br&gt;&lt;/p&gt;&lt;hr size=&quot;1&quot;&gt;&lt;hr size=&quot;1&quot;&gt;&lt;p style=&quot;margin: 0px ; margin-left: 4px&quot;&gt;getDestination() : abstract Node&lt;/p&gt;&lt;p style=&quot;margin: 0px ; margin-left: 4px&quot;&gt;getLength() : abstract float&lt;/p&gt;&lt;p style=&quot;margin: 0px ; margin-left: 4px&quot;&gt;getMinimumTravelTime() : double&lt;/p&gt;&lt;p style=&quot;margin: 0px ; margin-left: 4px&quot;&gt;getOrigin() : abstract Node&lt;/p&gt;&lt;p style=&quot;margin: 0px ; margin-left: 4px&quot;&gt;getPoints() : abstract java.util.List&amp;lt;Point&amp;gt;&lt;/p&gt;&lt;p style=&quot;margin: 0px ; margin-left: 4px&quot;&gt;getRoadInformation() : abstract RoadInformation&lt;/p&gt;&lt;p style=&quot;margin: 0px ; margin-left: 4px&quot;&gt;getTravelTime (double speed) : double&lt;br&gt;&lt;/p&gt;" style="verticalAlign=top;align=left;overflow=fill;fontSize=12;fontFamily=Helvetica;html=1;" vertex="1" parent="WIyWlLk6GJQsqaUBKTNV-1">
          <mxGeometry x="480" y="440" width="260" height="180" as="geometry" />
        </mxCell>
        <mxCell id="EZNr9idk4kIAUqU_iQ0u-4" value="&lt;p style=&quot;margin: 0px ; margin-top: 4px ; text-align: center&quot;&gt;&lt;b&gt;Graph&lt;/b&gt;&lt;br&gt;&lt;/p&gt;&lt;hr size=&quot;1&quot;&gt;&lt;div&gt;mapId : java.lang.string&lt;/div&gt;&lt;div&gt;mapName : java.lang.string&lt;/div&gt;&lt;div&gt;nodes: java.util.List&amp;lt;Node&amp;gt;&lt;/div&gt;&lt;div&gt;graphstatistics : GraphStatistics&lt;br&gt;&lt;/div&gt;&lt;hr size=&quot;1&quot;&gt;&lt;div&gt;get(int id) : Node&lt;/div&gt;&lt;div&gt;getGraphInformation() : GraphStatistics&lt;/div&gt;&lt;div&gt;getMapId() : java.lang.String()&lt;/div&gt;&lt;div&gt;getMapName() : java.lang.String()&lt;/div&gt;&lt;div&gt;getNodes() : java.util.List&amp;lt;Node&amp;gt;&lt;/div&gt;&lt;div&gt;toString() : java.lang.String&lt;/div&gt;&lt;div&gt;transpose() : Graph&lt;br&gt;&lt;/div&gt;&lt;div&gt;size() : int&lt;br&gt;&lt;/div&gt;&lt;p style=&quot;margin: 0px ; margin-left: 4px&quot;&gt;&lt;br&gt;&lt;/p&gt;" style="verticalAlign=top;align=left;overflow=fill;fontSize=12;fontFamily=Helvetica;html=1;" vertex="1" parent="WIyWlLk6GJQsqaUBKTNV-1">
          <mxGeometry x="680" y="50" width="283" height="280" as="geometry" />
        </mxCell>
        <mxCell id="EZNr9idk4kIAUqU_iQ0u-5" value="&lt;p style=&quot;margin: 0px ; margin-top: 4px ; text-align: center&quot;&gt;RoadInformation&lt;br&gt;&lt;/p&gt;&lt;hr size=&quot;1&quot;&gt;&lt;div&gt;id : int&lt;/div&gt;&lt;div&gt;point : Point&lt;br&gt;&lt;/div&gt;&lt;hr size=&quot;1&quot;&gt;&lt;div&gt;compareTo(node other) : int&lt;/div&gt;&lt;div&gt;equals(java.lang.Object other) : boolean&lt;/div&gt;&lt;div&gt;getId() : int&lt;/div&gt;&lt;div&gt;getNumberOfSuccessors() : int&lt;/div&gt;&lt;div&gt;getPoint() : Point&lt;/div&gt;&lt;div&gt;getSuccessors() : java.util.List&amp;lt;Arc&amp;gt;&lt;/div&gt;&lt;div&gt;hasSuccessors() : boolean&lt;/div&gt;&lt;div&gt;linkNodes(Node origin, node destination, float length, &lt;br&gt;&lt;/div&gt;&lt;div&gt;RoadInformation roadInformation, &lt;br&gt;&lt;/div&gt;&lt;div&gt;java.util.ArrayList&amp;lt;Point&amp;gt; points) : static Arc&lt;br&gt;&lt;/div&gt;&lt;font face=&quot;Helvetica&quot;&gt;&lt;code&gt;&lt;/code&gt;&lt;/font&gt;" style="verticalAlign=top;align=left;overflow=fill;fontSize=12;fontFamily=Helvetica;html=1;" vertex="1" parent="WIyWlLk6GJQsqaUBKTNV-1">
          <mxGeometry x="850" y="440" width="290" height="250" as="geometry" />
        </mxCell>
      </root>
    </mxGraphModel>
  </diagram>
</mxfile>
